<svg width="18" height="18" viewBox="0 0 18 18" fill="none" xmlns="http://www.w3.org/2000/svg">
<path d="M12.375 14.0625H5.62499M12.375 14.0625C12.9717 14.0625 13.544 14.2996 13.966 14.7215C14.3879 15.1435 14.625 15.7158 14.625 16.3125H3.37499C3.37499 15.7158 3.61204 15.1435 4.034 14.7215C4.45595 14.2996 5.02825 14.0625 5.62499 14.0625M12.375 14.0625V11.5312C12.375 11.0655 11.9977 10.6875 11.5312 10.6875H10.878M5.62499 14.0625V11.5312C5.62499 11.0655 6.00299 10.6875 6.46874 10.6875H7.12274M10.878 10.6875H7.12274M10.878 10.6875C10.4567 9.95996 10.205 9.14679 10.1415 8.3085M7.12274 10.6875C7.54373 9.9599 7.79522 9.14673 7.85849 8.3085M3.93749 3.177C3.20099 3.28425 2.47199 3.41475 1.75049 3.567C1.91774 4.54859 2.40567 5.44705 3.13795 6.12178C3.87022 6.79652 4.80552 7.20946 5.79749 7.296M3.93749 3.177V3.375C3.93749 4.956 4.66199 6.3675 5.79749 7.296M3.93749 3.177V2.04075C5.59199 1.8075 7.28249 1.6875 8.99999 1.6875C10.7182 1.6875 12.4087 1.8075 14.0625 2.04V3.177M5.79749 7.296C6.39752 7.78745 7.10279 8.13393 7.85849 8.3085M14.0625 3.177V3.375C14.0625 4.956 13.338 6.3675 12.2025 7.296M14.0625 3.177C14.7955 3.28365 15.5248 3.41372 16.2495 3.567C16.0823 4.54848 15.5944 5.44684 14.8623 6.12157C14.1302 6.79629 13.1951 7.2093 12.2032 7.296M12.2032 7.296C11.603 7.78756 10.8975 8.13404 10.1415 8.3085M10.1415 8.3085C9.39035 8.48175 8.60963 8.48175 7.85849 8.3085" stroke="white" stroke-width="1.125" stroke-linecap="round" stroke-linejoin="round"/>
</svg>
