<svg width="24" height="24" viewBox="0 0 24 24" fill="none" xmlns="http://www.w3.org/2000/svg">
<path d="M20.9838 18.2672L20.3841 16.675C20.2608 16.348 20.0403 16.0666 19.7523 15.8685C19.4644 15.6705 19.1226 15.5654 18.7732 15.5673H18.5111V1.85487H5.48955V9.44252H7.1943L9.14021 7.01014C9.34613 6.77431 9.59986 6.585 9.88455 6.45475C10.1692 6.32451 10.4784 6.25632 10.7915 6.25471H14.9508C15.2687 6.25287 15.5807 6.33953 15.8521 6.50499C16.1235 6.67044 16.3435 6.90815 16.4874 7.19152L17.7238 9.53356C17.7878 9.64101 17.8203 9.76432 17.8176 9.88938C17.8131 10.0966 17.7288 10.2942 17.5822 10.4408C17.4357 10.5873 17.2381 10.6717 17.0309 10.6761C16.8853 10.6823 16.741 10.6469 16.6149 10.5739C16.4888 10.5009 16.3862 10.3933 16.3192 10.264L15.2128 8.13112H13.4143L14.8007 11.5782L15.2128 15.9842H18.7725C19.3347 15.9842 19.7843 16.3401 20.0088 16.8272L20.4022 17.8391H14.2579C13.8083 17.8391 13.415 17.5021 13.3962 17.0524L12.9841 13.1926L9.68645 20.031C9.58592 20.2321 9.43012 20.4003 9.23734 20.5158C9.04457 20.6314 8.82283 20.6896 8.59814 20.6836H7.00666L11.0535 12.3086L9.79834 9.16106L8.59953 10.6205C8.4391 10.8249 8.2343 10.9902 8.00061 11.1039C7.76692 11.2175 7.51046 11.2766 7.25059 11.2765H5.48955V21.1708L8.29999 23.9625H0V0H24V24H21.3021L18.5105 21.2083V18.2672H20.9838Z" fill="white"/>
<path d="M9.76044 2.75439H9.94808L10.0419 2.77316L10.117 2.79192L10.192 2.81069L10.2657 2.82945L10.3407 2.86698L10.4158 2.90451L10.4908 2.94204L10.5659 2.97956L10.641 3.01709L10.716 3.05462L10.7723 3.11091L10.8286 3.16721L10.8849 3.2235L10.9412 3.27979L10.9975 3.33608L11.0538 3.39237L11.1101 3.44867L11.1691 3.52233L11.2067 3.59739L11.2386 3.67245L11.2762 3.7475L11.3158 3.82256L11.3533 3.89762L11.3721 3.97267L11.3908 4.04773L11.4096 4.12279L11.4284 4.19784L11.4471 4.29097V4.47861C11.4471 5.41542 10.6604 6.1646 9.74237 6.1646C9.52059 6.16561 9.3008 6.12267 9.09571 6.03827C8.89061 5.95386 8.70427 5.82966 8.54744 5.67284C8.39062 5.51601 8.26642 5.32967 8.18201 5.12458C8.09761 4.91948 8.05467 4.6997 8.05568 4.47791C8.05568 3.54457 8.84238 2.75439 9.76044 2.75439Z" fill="white"/>
<path d="M10.5101 21.8267L12.6645 23.9811H10.057L7.25 21.1895H8.93599C9.52227 21.1958 10.0845 21.4235 10.5101 21.8267Z" fill="white"/>
</svg>
