<svg width="18" height="18" viewBox="0 0 18 18" fill="none" xmlns="http://www.w3.org/2000/svg">
<path d="M8.60999 2.62417C8.64171 2.54679 8.69573 2.4806 8.76518 2.43401C8.83463 2.38742 8.91636 2.36255 8.99999 2.36255C9.08362 2.36255 9.16535 2.38742 9.2348 2.43401C9.30425 2.4806 9.35827 2.54679 9.38999 2.62417L10.9837 6.45742C11.0136 6.52914 11.0626 6.59125 11.1255 6.6369C11.1883 6.68255 11.2626 6.70998 11.34 6.71617L15.4785 7.04767C15.8527 7.07767 16.0042 7.54492 15.7192 7.78867L12.5662 10.4902C12.5073 10.5406 12.4634 10.6062 12.4394 10.6799C12.4153 10.7536 12.412 10.8325 12.4297 10.9079L13.3935 14.9467C13.4129 15.0277 13.4078 15.1126 13.3789 15.1908C13.35 15.2689 13.2986 15.3368 13.2312 15.3857C13.1638 15.4347 13.0834 15.4626 13.0001 15.4658C12.9169 15.4691 12.8345 15.4477 12.7635 15.4042L9.21974 13.2404C9.15354 13.2001 9.07751 13.1787 8.99999 13.1787C8.92247 13.1787 8.84644 13.2001 8.78024 13.2404L5.23649 15.4049C5.16543 15.4484 5.08308 15.4699 4.99983 15.4666C4.91659 15.4633 4.83618 15.4354 4.76877 15.3865C4.70136 15.3375 4.64996 15.2697 4.62108 15.1915C4.5922 15.1134 4.58712 15.0284 4.60649 14.9474L5.57024 10.9079C5.58811 10.8325 5.58483 10.7535 5.56075 10.6798C5.53666 10.6061 5.49272 10.5405 5.43374 10.4902L2.28074 7.78867C2.2176 7.73438 2.17192 7.66263 2.14945 7.58244C2.12698 7.50226 2.12872 7.41722 2.15445 7.33803C2.18018 7.25883 2.22876 7.18901 2.29407 7.13734C2.35937 7.08568 2.4385 7.05448 2.52149 7.04767L6.65999 6.71617C6.73743 6.70998 6.81166 6.68255 6.87451 6.6369C6.93737 6.59125 6.98641 6.52914 7.01624 6.45742L8.60999 2.62492V2.62417Z" stroke="white" stroke-width="1.125" stroke-linecap="round" stroke-linejoin="round"/>
</svg>
