<svg width="427" height="209" viewBox="0 0 427 209" fill="none" xmlns="http://www.w3.org/2000/svg">
<g clip-path="url(#clip0_112_18)">
<path fill-rule="evenodd" clip-rule="evenodd" d="M422.575 0.705963C421.189 -4.30369e-07 419.375 -5.88956e-07 415.747 -9.06135e-07L355.795 -6.1473e-06C355.795 5.10655 351.655 9.24621 346.548 9.24621C341.44 9.24621 337.3 5.10655 337.3 -7.76422e-06L10.3651 -3.63458e-05C6.73739 -3.66629e-05 4.9235 -3.68215e-05 3.53765 0.705927C2.31838 1.32691 1.32817 2.31777 0.705814 3.53653C0.000164044 4.92206 0.000152139 6.73581 0.000151822 10.3633L0.000135363 198.637C0.000135046 202.264 0.000146633 204.078 0.705796 205.463C1.32816 206.682 2.31836 207.673 3.53763 208.294C4.92348 209 6.73737 209 10.3651 209L337.3 209C337.3 203.893 341.44 199.754 346.548 199.754C351.655 199.754 355.795 203.893 355.795 209L415.747 209C419.375 209 421.189 209 422.575 208.294C423.794 207.673 424.785 206.682 425.406 205.463C426.112 204.078 426.112 202.264 426.112 198.637L426.112 10.3634C426.112 6.73585 426.112 4.9221 425.406 3.53657C424.785 2.31781 423.794 1.32694 422.575 0.705963ZM341.313 27.4997C341.313 30.3901 343.657 32.7335 346.548 32.7335C349.438 32.7335 351.782 30.3901 351.782 27.4997C351.782 24.6091 349.438 22.2659 346.548 22.2659C343.657 22.2659 341.313 24.6091 341.313 27.4997ZM346.548 51.116C343.657 51.116 341.313 48.7729 341.313 45.8822C341.313 42.9918 343.657 40.6485 346.548 40.6485C349.438 40.6485 351.782 42.9918 351.782 45.8822C351.782 48.7729 349.438 51.116 346.548 51.116ZM341.313 65.4216C341.313 68.312 343.657 70.6551 346.548 70.6551C349.438 70.6551 351.782 68.312 351.782 65.4216C351.782 62.531 349.438 60.1879 346.548 60.1879C343.657 60.1879 341.313 62.531 341.313 65.4216ZM346.548 90.1945C343.657 90.1945 341.313 87.8511 341.313 84.9607C341.313 82.0701 343.657 79.727 346.548 79.727C349.438 79.727 351.782 82.0701 351.782 84.9607C351.782 87.8511 349.438 90.1945 346.548 90.1945ZM341.313 104.5C341.313 107.39 343.657 109.734 346.548 109.734C349.438 109.734 351.782 107.39 351.782 104.5C351.782 101.609 349.438 99.2663 346.548 99.2663C343.657 99.2663 341.313 101.609 341.313 104.5ZM346.548 129.273C343.657 129.273 341.313 126.93 341.313 124.039C341.313 121.149 343.657 118.805 346.548 118.805C349.438 118.805 351.782 121.149 351.782 124.039C351.782 126.93 349.438 129.273 346.548 129.273ZM341.313 143.578C341.313 146.469 343.657 148.812 346.548 148.812C349.438 148.812 351.782 146.469 351.782 143.578C351.782 140.688 349.438 138.345 346.548 138.345C343.657 138.345 341.313 140.688 341.313 143.578ZM346.548 168.351C343.657 168.351 341.313 166.008 341.313 163.118C341.313 160.227 343.657 157.884 346.548 157.884C349.438 157.884 351.782 160.227 351.782 163.118C351.782 166.008 349.438 168.351 346.548 168.351ZM341.313 182.657C341.313 185.547 343.657 187.891 346.548 187.891C349.438 187.891 351.782 185.547 351.782 182.657C351.782 179.766 349.438 177.423 346.548 177.423C343.657 177.423 341.313 179.766 341.313 182.657Z" fill="white"/>
<path d="M11.1578 141.117L0.756908 141.117L0.756905 208.997L31.0837 208.997L33.2734 199.143L11.1578 199.143L11.1578 141.117ZM61.4533 156.773C54.6653 156.773 45.6877 160.058 41.5273 169.254L51.4903 173.634C54.1179 167.831 57.9498 166.627 61.4533 166.627C66.8179 166.627 70.5403 170.021 70.5403 175.166L70.5403 179.655C67.8033 177.903 64.5188 177.137 61.2343 177.137C51.4903 177.137 43.2791 183.925 43.2791 194.764L43.2791 208.997L80.9412 208.997L80.9412 176.918C80.9412 163.014 72.6205 156.773 61.4533 156.773ZM53.68 195.64C53.68 190.603 56.1981 186.662 62.1102 186.662C66.161 186.662 70.5403 188.961 70.5403 195.64L70.5403 199.143L53.68 199.143L53.68 195.64ZM150.783 156.773C142.572 156.773 133.266 158.634 127.572 161.481L127.572 135.643L117.281 135.643L117.281 208.997L122.317 208.997C145.966 208.997 156.148 201.99 156.148 178.889L156.148 156.773L150.783 156.773ZM127.572 180.203C127.572 172.539 127.572 168.597 145.747 167.393L145.747 178.889C145.747 193.012 142.791 198.705 127.572 199.143L127.572 180.203ZM190.91 156.883C176.239 156.883 164.196 168.816 164.196 183.487C164.196 198.158 176.239 210.091 190.91 210.091C205.581 210.091 217.624 198.158 217.624 183.487C217.624 168.707 205.581 156.883 190.91 156.883ZM190.91 199.8C181.932 199.8 174.597 192.465 174.597 183.487C174.597 174.4 181.932 167.174 190.91 167.174C199.888 167.174 207.223 174.4 207.223 183.487C207.223 192.465 199.778 199.8 190.91 199.8ZM238.983 157.868L228.582 157.868L228.582 208.997L238.983 208.997L238.983 183.816C238.983 173.415 244.895 167.174 258.142 167.174L258.142 156.773C250.369 156.773 244.128 158.744 238.983 163.89L238.983 157.868ZM303.817 156.773C294.839 156.773 286.519 158.087 279.183 163.342L279.183 157.868L268.782 157.868L268.782 208.997L279.183 208.997L279.183 183.597C279.183 174.509 283.344 166.955 298.562 167.065L298.562 208.997L308.963 208.997L308.963 156.773L303.817 156.773ZM332.827 188.742C335.346 190.494 337.973 191.26 341.805 191.26C350.564 191.26 358.994 184.582 358.994 174.29C358.994 164.546 351.111 156.773 341.367 156.773C331.514 156.773 322.536 163.452 322.536 175.385L322.536 208.997L357.571 208.997L357.571 199.143L332.827 199.143L332.827 188.742ZM340.929 166.079C345.418 166.079 349.031 169.692 349.031 174.181C349.031 178.67 345.418 182.283 340.929 182.283C336.44 182.283 332.827 178.67 332.827 174.181C332.827 169.692 336.44 166.079 340.929 166.079Z" fill="#494444" fill-opacity="0.1"/>
<path d="M426 8L426 10.0316L368 10.0316L368 8L426 8ZM368 12.0632L368 14.0947L426 14.0947L426 12.0632L368 12.0632ZM371.919 20.1895L371.919 22.2211L426 22.2211L426 20.1895L371.919 20.1895ZM426 24.2526L371.919 24.2526L371.919 26.2842L371.919 28.3158L426 28.3158L426 26.2842L426 24.2526V24.2526ZM371.919 30.3474L371.919 32.3789L426 32.3789L426 30.3474L371.919 30.3474ZM426 38.4737L426 36.4421L371.919 36.4421L371.919 38.4737L371.919 40.5053L371.919 42.5368L426 42.5368L426 40.5053L426 38.4737V38.4737ZM426 44.5684L371.919 44.5684L371.919 46.6L371.919 48.6316L426 48.6316L426 46.6L426 44.5684V44.5684ZM426 52.6947L371.919 52.6947L371.919 54.7263L371.919 56.7579L426 56.7579L426 54.7263L426 52.6947V52.6947ZM371.919 60.8211L371.919 62.8526L426 62.8526L426 60.8211L371.919 60.8211ZM426 66.9158L371.919 66.9158L371.919 68.9474L371.919 70.9789L426 70.9789L426 68.9474L426 66.9158V66.9158ZM426 77.0737L426 75.0421L426 73.0105L371.919 73.0105L371.919 75.0421L371.919 77.0737L371.919 79.1053L371.919 81.1368L426 81.1368L426 79.1053L426 77.0737V77.0737ZM371.919 83.1684L371.919 85.2L426 85.2L426 83.1684L371.919 83.1684ZM426 91.2947L426 89.2632L371.919 89.2632L371.919 91.2947L371.919 93.3263L371.919 95.3579L426 95.3579L426 93.3263L426 91.2947V91.2947ZM371.919 97.3895L371.919 99.4211L426 99.4211L426 97.3895L371.919 97.3895ZM368 101.453L368 103.484L426 103.484L426 101.453L368 101.453ZM368 105.516L368 107.547L426 107.547L426 105.516L368 105.516ZM426 109.579L371.919 109.579L371.919 111.611L371.919 113.642L426 113.642L426 111.611L426 109.579V109.579ZM426 117.705L371.919 117.705L371.919 119.737L371.919 121.768L426 121.768L426 119.737L426 117.705V117.705ZM426 123.8L371.919 123.8L371.919 125.832L371.919 127.863L426 127.863L426 125.832L426 123.8V123.8ZM426 129.895L371.919 129.895L371.919 131.926L371.919 133.958L426 133.958L426 131.926L426 129.895V129.895ZM371.919 138.021L371.919 140.053L426 140.053L426 138.021L371.919 138.021ZM371.919 148.179L371.919 150.211L426 150.211L426 148.179L371.919 148.179ZM371.919 152.242L371.919 154.274L426 154.274L426 152.242L371.919 152.242ZM426 158.337L426 156.305L371.919 156.305L371.919 158.337L371.919 160.368L371.919 162.4L426 162.4L426 160.368L426 158.337V158.337ZM371.919 166.463L371.919 168.495L426 168.495L426 166.463L371.919 166.463ZM426 174.589L426 172.558L371.919 172.558L371.919 174.589L371.919 176.621L371.919 178.653L426 178.653L426 176.621L426 174.589V174.589ZM371.919 180.684L371.919 182.716L426 182.716L426 180.684L371.919 180.684ZM371.919 188.811L371.919 190.842L426 190.842L426 188.811L371.919 188.811ZM368 194.905L368 196.937L426 196.937L426 194.905L368 194.905ZM426 198.968L368 198.968L368 201L426 201L426 198.968V198.968Z" fill="black"/>
<rect width="66.1665" height="20.5116" transform="translate(15.2617 169.343)" fill="black"/>
<path d="M238.638 150.583L238.638 140.959L242.069 140.959C242.818 140.959 243.438 141.095 243.93 141.368C244.422 141.64 244.79 142.013 245.034 142.486C245.279 142.956 245.401 143.485 245.401 144.074C245.401 144.667 245.277 145.199 245.029 145.672C244.785 146.142 244.415 146.515 243.92 146.791C243.429 147.063 242.81 147.199 242.064 147.199L239.705 147.199L239.705 145.968L241.933 145.968C242.406 145.968 242.789 145.887 243.084 145.724C243.378 145.558 243.595 145.332 243.732 145.047C243.87 144.762 243.939 144.438 243.939 144.074C243.939 143.711 243.87 143.388 243.732 143.106C243.595 142.824 243.377 142.604 243.079 142.444C242.785 142.284 242.396 142.204 241.914 142.204L240.09 142.204L240.09 150.583L238.638 150.583ZM248.395 140.959L248.395 150.583L246.99 150.583L246.99 140.959L248.395 140.959ZM252.386 150.743C251.929 150.743 251.515 150.658 251.146 150.489C250.776 150.317 250.483 150.068 250.267 149.742C250.054 149.416 249.947 149.017 249.947 148.544C249.947 148.136 250.026 147.801 250.182 147.538C250.339 147.275 250.55 147.066 250.817 146.913C251.083 146.759 251.381 146.643 251.71 146.565C252.039 146.487 252.374 146.427 252.715 146.387C253.148 146.336 253.498 146.296 253.768 146.264C254.037 146.23 254.233 146.175 254.355 146.1C254.477 146.025 254.539 145.902 254.539 145.733L254.539 145.7C254.539 145.29 254.423 144.972 254.191 144.746C253.962 144.521 253.621 144.408 253.166 144.408C252.693 144.408 252.32 144.513 252.048 144.723C251.778 144.93 251.592 145.16 251.489 145.414L250.168 145.113C250.325 144.674 250.554 144.32 250.854 144.051C251.158 143.778 251.508 143.581 251.902 143.459C252.297 143.334 252.712 143.271 253.148 143.271C253.436 143.271 253.741 143.305 254.064 143.374C254.39 143.44 254.694 143.562 254.976 143.741C255.261 143.919 255.494 144.175 255.676 144.507C255.858 144.836 255.948 145.263 255.948 145.79L255.948 150.583L254.576 150.583L254.576 149.596L254.52 149.596C254.429 149.778 254.293 149.956 254.111 150.132C253.929 150.307 253.696 150.453 253.411 150.569C253.126 150.685 252.784 150.743 252.386 150.743ZM252.692 149.615C253.08 149.615 253.412 149.538 253.688 149.385C253.967 149.231 254.178 149.031 254.322 148.783C254.47 148.533 254.543 148.265 254.543 147.98L254.543 147.049C254.493 147.099 254.396 147.146 254.252 147.19C254.111 147.231 253.95 147.267 253.768 147.298C253.586 147.326 253.409 147.353 253.237 147.378C253.065 147.4 252.92 147.419 252.805 147.434C252.532 147.469 252.283 147.527 252.057 147.608C251.835 147.69 251.656 147.807 251.522 147.961C251.39 148.111 251.324 148.312 251.324 148.562C251.324 148.91 251.453 149.173 251.71 149.352C251.966 149.527 252.294 149.615 252.692 149.615ZM260.86 150.729C260.162 150.729 259.56 150.57 259.056 150.254C258.555 149.935 258.169 149.494 257.9 148.934C257.63 148.373 257.496 147.731 257.496 147.007C257.496 146.274 257.633 145.627 257.909 145.066C258.185 144.502 258.573 144.062 259.075 143.745C259.576 143.429 260.166 143.271 260.846 143.271C261.394 143.271 261.883 143.373 262.312 143.576C262.742 143.777 263.088 144.059 263.351 144.422C263.617 144.786 263.775 145.21 263.826 145.696L262.458 145.696C262.383 145.357 262.211 145.066 261.941 144.822C261.675 144.577 261.318 144.455 260.87 144.455C260.478 144.455 260.135 144.558 259.841 144.765C259.549 144.969 259.322 145.26 259.159 145.639C258.996 146.015 258.915 146.46 258.915 146.974C258.915 147.5 258.995 147.955 259.154 148.337C259.314 148.719 259.54 149.015 259.831 149.225C260.126 149.435 260.472 149.54 260.87 149.54C261.136 149.54 261.377 149.491 261.593 149.394C261.813 149.294 261.996 149.151 262.143 148.966C262.294 148.782 262.399 148.559 262.458 148.299L263.826 148.299C263.775 148.766 263.624 149.183 263.37 149.549C263.116 149.916 262.776 150.204 262.35 150.414C261.927 150.624 261.431 150.729 260.86 150.729ZM268.439 150.729C267.728 150.729 267.116 150.577 266.602 150.273C266.091 149.966 265.696 149.535 265.418 148.981C265.142 148.423 265.004 147.77 265.004 147.021C265.004 146.282 265.142 145.63 265.418 145.066C265.696 144.502 266.085 144.062 266.583 143.745C267.084 143.429 267.67 143.271 268.34 143.271C268.748 143.271 269.142 143.338 269.525 143.473C269.907 143.608 270.25 143.819 270.554 144.107C270.858 144.396 271.097 144.77 271.273 145.23C271.448 145.688 271.536 146.244 271.536 146.899L271.536 147.397L265.798 147.397L265.798 146.344L270.159 146.344C270.159 145.975 270.084 145.647 269.934 145.362C269.783 145.074 269.572 144.847 269.299 144.681C269.03 144.515 268.713 144.432 268.35 144.432C267.955 144.432 267.611 144.529 267.316 144.723C267.025 144.914 266.799 145.165 266.639 145.475C266.483 145.782 266.404 146.116 266.404 146.476L266.404 147.298C266.404 147.781 266.489 148.191 266.658 148.529C266.83 148.868 267.07 149.126 267.377 149.305C267.684 149.48 268.043 149.568 268.453 149.568C268.72 149.568 268.962 149.53 269.182 149.455C269.401 149.377 269.591 149.261 269.75 149.107C269.91 148.954 270.032 148.764 270.117 148.539L271.447 148.778C271.34 149.17 271.149 149.513 270.873 149.808C270.601 150.099 270.258 150.326 269.844 150.489C269.434 150.649 268.965 150.729 268.439 150.729Z" fill="black"/>
<path d="M287.533 150.583L287.533 140.959L290.963 140.959C291.709 140.959 292.328 141.087 292.82 141.344C293.315 141.601 293.684 141.957 293.929 142.411C294.173 142.862 294.295 143.384 294.295 143.976C294.295 144.565 294.172 145.083 293.924 145.531C293.68 145.976 293.31 146.322 292.815 146.57C292.323 146.817 291.704 146.941 290.959 146.941L288.36 146.941L288.36 145.691L290.827 145.691C291.297 145.691 291.679 145.624 291.974 145.489C292.271 145.354 292.489 145.158 292.627 144.902C292.765 144.645 292.834 144.336 292.834 143.976C292.834 143.612 292.763 143.297 292.622 143.031C292.484 142.765 292.267 142.561 291.969 142.42C291.675 142.276 291.288 142.204 290.808 142.204L288.985 142.204L288.985 150.583L287.533 150.583ZM292.284 146.241L294.662 150.583L293.008 150.583L290.677 146.241L292.284 146.241ZM298.05 150.743C297.593 150.743 297.179 150.658 296.809 150.489C296.44 150.317 296.147 150.068 295.931 149.742C295.718 149.416 295.611 149.017 295.611 148.544C295.611 148.136 295.689 147.801 295.846 147.538C296.003 147.275 296.214 147.066 296.48 146.913C296.747 146.759 297.044 146.643 297.373 146.565C297.702 146.487 298.037 146.427 298.379 146.387C298.811 146.336 299.162 146.296 299.432 146.264C299.701 146.23 299.897 146.175 300.019 146.1C300.141 146.025 300.202 145.902 300.202 145.733L300.202 145.7C300.202 145.29 300.086 144.972 299.855 144.746C299.626 144.521 299.284 144.408 298.83 144.408C298.357 144.408 297.984 144.513 297.712 144.723C297.442 144.93 297.256 145.16 297.152 145.414L295.832 145.113C295.989 144.674 296.217 144.32 296.518 144.051C296.822 143.778 297.171 143.581 297.566 143.459C297.961 143.334 298.376 143.271 298.811 143.271C299.1 143.271 299.405 143.305 299.728 143.374C300.053 143.44 300.357 143.562 300.639 143.741C300.924 143.919 301.158 144.175 301.34 144.507C301.521 144.836 301.612 145.263 301.612 145.79L301.612 150.583L300.24 150.583L300.24 149.596L300.184 149.596C300.093 149.778 299.956 149.956 299.775 150.132C299.593 150.307 299.36 150.453 299.074 150.569C298.789 150.685 298.448 150.743 298.05 150.743ZM298.355 149.615C298.744 149.615 299.076 149.538 299.352 149.385C299.631 149.231 299.842 149.031 299.986 148.783C300.133 148.533 300.207 148.265 300.207 147.98L300.207 147.049C300.157 147.099 300.06 147.146 299.916 147.19C299.775 147.231 299.613 147.267 299.432 147.298C299.25 147.326 299.073 147.353 298.901 147.378C298.728 147.4 298.584 147.419 298.468 147.434C298.196 147.469 297.947 147.527 297.721 147.608C297.499 147.69 297.32 147.807 297.185 147.961C297.054 148.111 296.988 148.312 296.988 148.562C296.988 148.91 297.116 149.173 297.373 149.352C297.63 149.527 297.958 149.615 298.355 149.615ZM304.889 146.297L304.889 150.583L303.484 150.583L303.484 143.365L304.832 143.365L304.832 144.54L304.922 144.54C305.088 144.157 305.348 143.85 305.702 143.619C306.059 143.387 306.508 143.271 307.05 143.271C307.542 143.271 307.973 143.374 308.343 143.581C308.712 143.785 308.999 144.089 309.203 144.493C309.406 144.897 309.508 145.397 309.508 145.992L309.508 150.583L308.103 150.583L308.103 146.161C308.103 145.638 307.967 145.229 307.694 144.934C307.422 144.637 307.047 144.488 306.571 144.488C306.245 144.488 305.955 144.558 305.702 144.699C305.451 144.84 305.252 145.047 305.105 145.32C304.961 145.589 304.889 145.915 304.889 146.297ZM314.419 153.44C313.846 153.44 313.352 153.365 312.939 153.215C312.528 153.064 312.193 152.865 311.933 152.618C311.673 152.37 311.479 152.099 311.35 151.805L312.558 151.307C312.643 151.445 312.755 151.59 312.896 151.744C313.04 151.9 313.235 152.034 313.479 152.143C313.727 152.253 314.045 152.308 314.433 152.308C314.966 152.308 315.406 152.178 315.754 151.918C316.101 151.661 316.275 151.25 316.275 150.686L316.275 149.267L316.186 149.267C316.101 149.421 315.979 149.591 315.819 149.779C315.663 149.967 315.447 150.13 315.171 150.268C314.895 150.406 314.536 150.475 314.095 150.475C313.525 150.475 313.011 150.342 312.553 150.075C312.099 149.806 311.739 149.41 311.472 148.887C311.209 148.36 311.078 147.713 311.078 146.946C311.078 146.178 311.208 145.52 311.468 144.972C311.731 144.424 312.091 144.004 312.549 143.713C313.006 143.418 313.525 143.271 314.104 143.271C314.552 143.271 314.914 143.346 315.19 143.496C315.465 143.644 315.68 143.816 315.833 144.013C315.99 144.211 316.111 144.385 316.195 144.535L316.299 144.535L316.299 143.365L317.676 143.365L317.676 150.743C317.676 151.363 317.531 151.872 317.243 152.27C316.955 152.668 316.565 152.962 316.073 153.154C315.584 153.345 315.033 153.44 314.419 153.44ZM314.405 149.309C314.809 149.309 315.15 149.216 315.429 149.028C315.711 148.836 315.924 148.564 316.068 148.21C316.216 147.853 316.289 147.425 316.289 146.927C316.289 146.441 316.217 146.014 316.073 145.644C315.929 145.274 315.718 144.986 315.439 144.779C315.16 144.569 314.815 144.464 314.405 144.464C313.982 144.464 313.629 144.574 313.347 144.793C313.066 145.01 312.853 145.304 312.708 145.677C312.567 146.05 312.497 146.466 312.497 146.927C312.497 147.4 312.569 147.815 312.713 148.172C312.857 148.529 313.07 148.808 313.352 149.009C313.637 149.209 313.988 149.309 314.405 149.309Z" fill="black"/>
</g>
<defs>
<clipPath id="clip0_112_18">
<rect y="209" width="209" height="426.112" rx="10" transform="rotate(-90 0 209)" fill="white"/>
</clipPath>
</defs>
</svg>
